<svg width="39" height="16" viewBox="0 0 39 16" fill="none" xmlns="http://www.w3.org/2000/svg">
<path fillRule="evenodd" clipRule="evenodd" d="M11.6111 4.26667V0L19 7.46667L11.6111 14.9333V10.56C6.33333 10.56 2.63889 12.2667 0 16C1.05556 10.6667 4.22222 5.33333 11.6111 4.26667Z" fill="#304FFF"/>
<path fillRule="evenodd" clipRule="evenodd" d="M37 4C38.1 4 39 3.1 39 2C39 0.9 38.1 0 37 0C35.9 0 35 0.9 35 2C35 3.1 35.9 4 37 4ZM37 6C35.9 6 35 6.9 35 8C35 9.1 35.9 10 37 10C38.1 10 39 9.1 39 8C39 6.9 38.1 6 37 6ZM37 12C35.9 12 35 12.9 35 14C35 15.1 35.9 16 37 16C38.1 16 39 15.1 39 14C39 12.9 38.1 12 37 12Z" fill="#BDBDD2"/>
</svg>
