<svg width="177" height="55" viewBox="0 0 177 55" fill="none" xmlns="http://www.w3.org/2000/svg">
<g id="Button - Android">
<rect id="Rectangle 1 Copy" width="177" height="55" rx="27.5" fill="#212121"/>
<path id="Android App on" fill-rule="evenodd" clip-rule="evenodd" d="M65.3111 21.6333L65.24 21.4319C65.1927 21.2976 65.1384 21.1429 65.0771 20.9678C65.0157 20.7927 64.9614 20.638 64.9141 20.5037L64.8431 20.3023H62.9905L62.5225 21.6333H61.9125L63.6295 16.983H64.204L65.9211 21.6333H65.3111ZM63.8909 17.7339L63.8167 17.9433C63.7672 18.083 63.7064 18.2559 63.6344 18.4622L63.4181 19.0809C63.346 19.2872 63.2852 19.4601 63.2358 19.5998L63.1615 19.8093H64.672L63.9426 17.7339H63.8909ZM66.7596 21.6333V18.1593H67.289V18.7071H67.3406C67.4288 18.5159 67.5585 18.3666 67.7295 18.2592C67.9006 18.1517 68.1195 18.098 68.3863 18.098C68.7779 18.098 69.0786 18.2092 69.2884 18.4316C69.4982 18.6539 69.6031 18.9714 69.6031 19.3839V21.6333H69.048V19.5192C69.048 19.2055 68.9807 18.9735 68.8462 18.8231C68.7118 18.6727 68.5057 18.5975 68.2282 18.5975C67.9506 18.5975 67.729 18.6845 67.5633 18.8586C67.3976 19.0326 67.3148 19.2721 67.3148 19.5772V21.6333H66.7596ZM71.9973 21.6945C71.5519 21.6945 71.1969 21.5312 70.9323 21.2047C70.6676 20.8781 70.5353 20.442 70.5353 19.8963C70.5353 19.3506 70.6687 18.9144 70.9355 18.5879C71.2023 18.2613 71.5562 18.098 71.9973 18.098C72.2405 18.098 72.4583 18.1517 72.6509 18.2592C72.8435 18.3666 72.9893 18.5159 73.0882 18.7071H73.1367V16.78H73.6918V21.6333H73.1625V21.079H73.1108C73.0011 21.2723 72.8483 21.4233 72.6525 21.5318C72.4567 21.6403 72.2383 21.6945 71.9973 21.6945ZM72.1264 18.5975C71.8101 18.5975 71.5616 18.713 71.3809 18.944C71.2001 19.1749 71.1098 19.4924 71.1098 19.8963C71.1098 20.3023 71.1996 20.6203 71.3793 20.8502C71.5589 21.0801 71.808 21.195 72.1264 21.195C72.4427 21.195 72.6923 21.079 72.8752 20.8469C73.0581 20.6149 73.1496 20.298 73.1496 19.8963C73.1496 19.4988 73.0576 19.183 72.8736 18.9488C72.6896 18.7146 72.4406 18.5975 72.1264 18.5975ZM74.8628 21.6333V18.1593H75.3921V18.6749H75.4438C75.4954 18.5052 75.6116 18.3666 75.7923 18.2592C75.9731 18.1517 76.1786 18.098 76.4088 18.098C76.454 18.098 76.5029 18.0996 76.5556 18.1029C76.6084 18.1061 76.6519 18.1098 76.6864 18.1141V18.6684C76.6648 18.662 76.6143 18.655 76.5347 18.6475C76.455 18.64 76.3873 18.6362 76.3313 18.6362C76.0667 18.6362 75.8483 18.7157 75.6761 18.8747C75.504 19.0337 75.4179 19.2356 75.4179 19.4805V21.6333H74.8628ZM78.8063 21.6945C78.3114 21.6945 77.9203 21.5339 77.6331 21.2127C77.3458 20.8915 77.2022 20.4527 77.2022 19.8963C77.2022 19.3377 77.3458 18.8983 77.6331 18.5782C77.9203 18.2581 78.3114 18.098 78.8063 18.098C79.3012 18.098 79.6922 18.2581 79.9795 18.5782C80.2667 18.8983 80.4103 19.3377 80.4103 19.8963C80.4103 20.4527 80.2667 20.8915 79.9795 21.2127C79.6922 21.5339 79.3012 21.6945 78.8063 21.6945ZM78.8063 21.195C79.1355 21.195 79.3894 21.0811 79.568 20.8534C79.7465 20.6257 79.8358 20.3066 79.8358 19.8963C79.8358 19.4838 79.7465 19.1642 79.568 18.9375C79.3894 18.7109 79.1355 18.5975 78.8063 18.5975C78.4771 18.5975 78.2232 18.7109 78.0446 18.9375C77.866 19.1642 77.7767 19.4838 77.7767 19.8963C77.7767 20.3066 77.866 20.6257 78.0446 20.8534C78.2232 21.0811 78.4771 21.195 78.8063 21.195ZM81.3877 21.6333V18.1593H81.9428V21.6333H81.3877ZM81.6653 17.4535C81.5598 17.4535 81.4689 17.4154 81.3926 17.3391C81.3162 17.2628 81.278 17.172 81.278 17.0668C81.278 16.9594 81.3162 16.868 81.3926 16.7928C81.4689 16.7177 81.5598 16.6801 81.6653 16.6801C81.7729 16.6801 81.8643 16.7177 81.9396 16.7928C82.0149 16.868 82.0526 16.9594 82.0526 17.0668C82.0526 17.172 82.0149 17.2628 81.9396 17.3391C81.8643 17.4154 81.7729 17.4535 81.6653 17.4535ZM84.3823 21.6945C83.9369 21.6945 83.5819 21.5312 83.3172 21.2047C83.0525 20.8781 82.9202 20.442 82.9202 19.8963C82.9202 19.3506 83.0536 18.9144 83.3204 18.5879C83.5872 18.2613 83.9412 18.098 84.3823 18.098C84.6254 18.098 84.8433 18.1517 85.0359 18.2592C85.2284 18.3666 85.3742 18.5159 85.4732 18.7071H85.5216V16.78H86.0767V21.6333H85.5474V21.079H85.4958C85.386 21.2723 85.2333 21.4233 85.0375 21.5318C84.8417 21.6403 84.6233 21.6945 84.3823 21.6945ZM84.5114 18.5975C84.1951 18.5975 83.9466 18.713 83.7658 18.944C83.5851 19.1749 83.4947 19.4924 83.4947 19.8963C83.4947 20.3023 83.5845 20.6203 83.7642 20.8502C83.9439 21.0801 84.1929 21.195 84.5114 21.195C84.8277 21.195 85.0773 21.079 85.2602 20.8469C85.4431 20.6149 85.5345 20.298 85.5345 19.8963C85.5345 19.4988 85.4425 19.183 85.2586 18.9488C85.0746 18.7146 84.8255 18.5975 84.5114 18.5975ZM92.3047 21.6333L92.2337 21.4319C92.1864 21.2976 92.132 21.1429 92.0707 20.9678C92.0094 20.7927 91.9551 20.638 91.9077 20.5037L91.8367 20.3023H89.9841L89.5161 21.6333H88.9061L90.6232 16.983H91.1977L92.9147 21.6333H92.3047ZM90.8846 17.7339L90.8104 17.9433C90.7609 18.083 90.7001 18.2559 90.628 18.4622L90.4118 19.0809C90.3397 19.2872 90.2789 19.4601 90.2294 19.5998L90.1552 19.8093H91.6657L90.9362 17.7339H90.8846ZM95.4477 18.098C95.891 18.098 96.2455 18.2613 96.5112 18.5879C96.7769 18.9144 96.9098 19.3506 96.9098 19.8963C96.9098 20.4398 96.7769 20.8754 96.5112 21.2031C96.2455 21.5307 95.891 21.6945 95.4477 21.6945C95.2003 21.6945 94.9808 21.6429 94.7893 21.5398C94.5978 21.4367 94.4547 21.2938 94.3601 21.1112H94.3084V22.7934H93.7533V18.1593H94.2826V18.7393H94.3342C94.4461 18.5395 94.6005 18.3827 94.7974 18.2688C94.9943 18.155 95.2111 18.098 95.4477 18.098ZM95.3154 21.195C95.636 21.195 95.8861 21.0801 96.0658 20.8502C96.2455 20.6203 96.3353 20.3023 96.3353 19.8963C96.3353 19.4902 96.2455 19.1722 96.0658 18.9424C95.8861 18.7125 95.6371 18.5975 95.3186 18.5975C95.0045 18.5975 94.7549 18.7141 94.5699 18.9472C94.3848 19.1803 94.2923 19.4967 94.2923 19.8963C94.2923 20.2937 94.3848 20.6095 94.5699 20.8437C94.7549 21.0779 95.0034 21.195 95.3154 21.195ZM99.5687 18.098C100.012 18.098 100.366 18.2613 100.632 18.5879C100.898 18.9144 101.031 19.3506 101.031 19.8963C101.031 20.4398 100.898 20.8754 100.632 21.2031C100.366 21.5307 100.012 21.6945 99.5687 21.6945C99.3213 21.6945 99.1018 21.6429 98.9103 21.5398C98.7188 21.4367 98.5757 21.2938 98.481 21.1112H98.4294V22.7934H97.8743V18.1593H98.4036V18.7393H98.4552C98.5671 18.5395 98.7215 18.3827 98.9184 18.2688C99.1152 18.155 99.332 18.098 99.5687 18.098ZM99.4364 21.195C99.757 21.195 100.007 21.0801 100.187 20.8502C100.366 20.6203 100.456 20.3023 100.456 19.8963C100.456 19.4902 100.366 19.1722 100.187 18.9424C100.007 18.7125 99.7581 18.5975 99.4396 18.5975C99.1255 18.5975 98.8759 18.7141 98.6908 18.9472C98.5058 19.1803 98.4133 19.4967 98.4133 19.8963C98.4133 20.2937 98.5058 20.6095 98.6908 20.8437C98.8759 21.0779 99.1244 21.195 99.4364 21.195ZM105.384 21.6945C104.889 21.6945 104.498 21.5339 104.21 21.2127C103.923 20.8915 103.779 20.4527 103.779 19.8963C103.779 19.3377 103.923 18.8983 104.21 18.5782C104.498 18.2581 104.889 18.098 105.384 18.098C105.878 18.098 106.27 18.2581 106.557 18.5782C106.844 18.8983 106.988 19.3377 106.988 19.8963C106.988 20.4527 106.844 20.8915 106.557 21.2127C106.27 21.5339 105.878 21.6945 105.384 21.6945ZM105.384 21.195C105.713 21.195 105.967 21.0811 106.145 20.8534C106.324 20.6257 106.413 20.3066 106.413 19.8963C106.413 19.4838 106.324 19.1642 106.145 18.9375C105.967 18.7109 105.713 18.5975 105.384 18.5975C105.054 18.5975 104.8 18.7109 104.622 18.9375C104.443 19.1642 104.354 19.4838 104.354 19.8963C104.354 20.3066 104.443 20.6257 104.622 20.8534C104.8 21.0811 105.054 21.195 105.384 21.195ZM107.952 21.6333C107.952 21.6333 107.952 21.5162 107.952 21.282C107.952 21.0478 107.952 20.7583 107.952 20.4135C107.952 20.0687 107.952 19.7239 107.952 19.379C107.952 19.0342 107.952 18.7447 107.952 18.5105C107.952 18.2763 107.952 18.1593 107.952 18.1593H108.481V18.7071H108.533C108.621 18.5159 108.751 18.3666 108.922 18.2592C109.093 18.1517 109.312 18.098 109.579 18.098C109.97 18.098 110.271 18.2092 110.481 18.4316C110.691 18.6539 110.796 18.9714 110.796 19.3839V21.6333H110.24V19.5192C110.24 19.2055 110.173 18.9735 110.039 18.8231C109.904 18.6727 109.698 18.5975 109.421 18.5975C109.143 18.5975 108.921 18.6845 108.756 18.8586C108.59 19.0326 108.507 19.2721 108.507 19.5772V21.6333H107.952Z" fill="white"/>
<path id="GOOGLE PLAY" fill-rule="evenodd" clip-rule="evenodd" d="M70.446 33.9188C70.446 35.1735 70.0985 36.1543 69.4035 36.8611C68.7085 37.5679 67.7392 37.9214 66.4955 37.9214C65.1959 37.9214 64.1599 37.482 63.3874 36.6033C62.615 35.7246 62.2288 34.5462 62.2288 33.068C62.2288 31.6157 62.6139 30.4598 63.3842 29.6005C64.1545 28.7411 65.1916 28.3114 66.4955 28.3114C67.5025 28.3114 68.36 28.5875 69.0679 29.1396C69.7758 29.6918 70.2158 30.4298 70.3879 31.3536H69.1679C68.9743 30.7262 68.644 30.2407 68.1771 29.8969C67.7102 29.5532 67.1497 29.3813 66.4955 29.3813C65.5359 29.3813 64.7839 29.7068 64.2395 30.3578C63.6951 31.0088 63.4229 31.91 63.4229 33.0616C63.4229 34.2304 63.6984 35.1542 64.2492 35.8331C64.8 36.512 65.5488 36.8514 66.4955 36.8514C67.3218 36.8514 67.9931 36.6076 68.5095 36.1199C69.0259 35.6322 69.2841 34.9995 69.2841 34.2218V34.0542H66.6569V33.0358H70.446V33.9188ZM76.5062 28.3114C77.8273 28.3114 78.873 28.7432 79.6433 29.6069C80.4136 30.4706 80.7988 31.6415 80.7988 33.1196C80.7988 34.5934 80.4136 35.7622 79.6433 36.6259C78.873 37.4895 77.8273 37.9214 76.5062 37.9214C75.185 37.9214 74.1393 37.4895 73.369 36.6259C72.5987 35.7622 72.2136 34.5934 72.2136 33.1196C72.2136 31.6415 72.5987 30.4706 73.369 29.6069C74.1393 28.7432 75.185 28.3114 76.5062 28.3114ZM76.5062 29.3813C75.5551 29.3813 74.801 29.7176 74.2437 30.39C73.6864 31.0625 73.4077 31.9723 73.4077 33.1196C73.4077 34.2626 73.6864 35.1703 74.2437 35.8427C74.801 36.5152 75.5551 36.8514 76.5062 36.8514C77.4572 36.8514 78.2114 36.5152 78.7687 35.8427C79.3259 35.1703 79.6046 34.2626 79.6046 33.1196C79.6046 31.9723 79.3259 31.0625 78.7687 30.39C78.2114 29.7176 77.4572 29.3813 76.5062 29.3813ZM86.8202 28.3114C88.1413 28.3114 89.187 28.7432 89.9573 29.6069C90.7276 30.4706 91.1128 31.6415 91.1128 33.1196C91.1128 34.5934 90.7276 35.7622 89.9573 36.6259C89.187 37.4895 88.1413 37.9214 86.8202 37.9214C85.499 37.9214 84.4533 37.4895 83.683 36.6259C82.9127 35.7622 82.5276 34.5934 82.5276 33.1196C82.5276 31.6415 82.9127 30.4706 83.683 29.6069C84.4533 28.7432 85.499 28.3114 86.8202 28.3114ZM86.8202 29.3813C85.8691 29.3813 85.115 29.7176 84.5577 30.39C84.0004 31.0625 83.7218 31.9723 83.7218 33.1196C83.7218 34.2626 84.0004 35.1703 84.5577 35.8427C85.115 36.5152 85.8691 36.8514 86.8202 36.8514C87.7712 36.8514 88.5254 36.5152 89.0827 35.8427C89.64 35.1703 89.9186 34.2626 89.9186 33.1196C89.9186 31.9723 89.64 31.0625 89.0827 30.39C88.5254 29.7176 87.7712 29.3813 86.8202 29.3813ZM101.059 33.9188C101.059 35.1735 100.711 36.1543 100.016 36.8611C99.3214 37.5679 98.3521 37.9214 97.1084 37.9214C95.8088 37.9214 94.7727 37.482 94.0003 36.6033C93.2278 35.7246 92.8416 34.5462 92.8416 33.068C92.8416 31.6157 93.2267 30.4598 93.997 29.6005C94.7674 28.7411 95.8045 28.3114 97.1084 28.3114C98.1154 28.3114 98.9728 28.5875 99.6807 29.1396C100.389 29.6918 100.829 30.4298 101.001 31.3536H99.7808C99.5871 30.7262 99.2568 30.2407 98.7899 29.8969C98.323 29.5532 97.7625 29.3813 97.1084 29.3813C96.1487 29.3813 95.3967 29.7068 94.8523 30.3578C94.308 31.0088 94.0358 31.91 94.0358 33.0616C94.0358 34.2304 94.3112 35.1542 94.862 35.8331C95.4129 36.512 96.1616 36.8514 97.1084 36.8514C97.9346 36.8514 98.6059 36.6076 99.1223 36.1199C99.6388 35.6322 99.8969 34.9995 99.8969 34.2218V34.0542H97.2698V33.0358H101.059V33.9188ZM108.842 36.7225V37.7667H103.188V28.4661H104.35V36.7225H108.842ZM116.536 36.7225V37.7667H110.765V28.4661H116.536V29.5102H111.927V32.4944H116.297V33.5257H111.927V36.7225H116.536ZM122.065 28.4661H125.39C126.263 28.4661 126.979 28.7432 127.536 29.2975C128.093 29.8518 128.372 30.5694 128.372 31.4503C128.372 32.3311 128.091 33.0509 127.53 33.6094C126.968 34.168 126.25 34.4473 125.377 34.4473H123.227V37.7667H122.065V28.4661ZM123.227 29.4973V33.4161H125.086C125.753 33.4161 126.269 33.2431 126.632 32.8972C126.996 32.5513 127.178 32.069 127.178 31.4503C127.178 30.8358 126.996 30.3567 126.632 30.013C126.269 29.6692 125.753 29.4973 125.086 29.4973H123.227ZM136.001 36.7225V37.7667H130.346V28.4661H131.508V36.7225H136.001ZM143.978 37.7667L143.836 37.3638C143.741 37.0953 143.633 36.7859 143.51 36.4357C143.387 36.0855 143.279 35.7761 143.184 35.5076L143.042 35.1048H139.337L138.401 37.7667H137.181L140.615 28.4661H141.764L145.198 37.7667H143.978ZM141.17 29.8776L141.018 30.3062C140.917 30.592 140.794 30.9454 140.647 31.3665C140.501 31.7876 140.354 32.2087 140.205 32.6298C140.057 33.0509 139.932 33.4043 139.831 33.69L139.679 34.1186H142.7L141.209 29.8776H141.17ZM149.47 37.7667C149.47 37.7667 149.412 37.7667 149.296 37.7667C149.18 37.7667 149.044 37.7667 148.889 37.7667C148.734 37.7667 148.599 37.7667 148.483 37.7667C148.366 37.7667 148.308 37.7667 148.308 37.7667V33.7641L145.003 28.4661H146.327L148.87 32.6427H148.909L151.452 28.4661H152.775L149.47 33.7641V37.7667Z" fill="white"/>
<ellipse id="Oval 1 Copy" opacity="0.701318" cx="32.6435" cy="27.5" rx="21.0369" ry="20.9868" stroke="white"/>
<g id="Icon - Google Play">
<path id="Fill 1" fill-rule="evenodd" clip-rule="evenodd" d="M39.5392 24.3322L26.2066 17.09C25.8286 16.8857 25.4799 16.8381 25.1975 16.9252L36.1181 27.7126L39.5392 24.3322Z" fill="url(#paint0_linear)"/>
<path id="Fill 2" fill-rule="evenodd" clip-rule="evenodd" d="M39.5566 31.1096L44.1081 28.6373C45.031 28.1341 45.031 27.3156 44.1081 26.8137L39.5397 24.3322L36.118 27.7125L39.5566 31.1096Z" fill="url(#paint1_linear)"/>
<path id="Fill 3" fill-rule="evenodd" clip-rule="evenodd" d="M25.1969 16.925C24.7914 17.0504 24.5289 17.4559 24.5289 18.0695L24.5314 37.3814C24.5314 37.9882 24.7857 38.3876 25.1794 38.5209L36.1181 27.7143L25.1969 16.925Z" fill="url(#paint2_linear)"/>
<path id="Fill 4" fill-rule="evenodd" clip-rule="evenodd" d="M25.1793 38.5209C25.4636 38.616 25.8192 38.5716 26.2066 38.3617L39.5547 31.1095L36.118 27.7144L25.1793 38.5209Z" fill="url(#paint3_linear)"/>
<mask id="mask0" mask-type="alpha" maskUnits="userSpaceOnUse" x="25" y="27" width="15" height="12">
<path id="Fill 4_2" fill-rule="evenodd" clip-rule="evenodd" d="M25.1793 38.5209C25.4636 38.616 25.8192 38.5716 26.2066 38.3617L39.5547 31.1095L36.118 27.7144L25.1793 38.5209Z" fill="white"/>
</mask>
<g mask="url(#mask0)">
</g>
</g>
</g>
<defs>
<linearGradient id="paint0_linear" x1="18.7248" y1="15.7885" x2="23.0657" y2="30.56" gradientUnits="userSpaceOnUse">
<stop stop-color="#19A3B4"/>
<stop offset="0.348168" stop-color="#5BC3AF"/>
<stop offset="0.922336" stop-color="#C8F7A6"/>
<stop offset="1" stop-color="#D7FEA5"/>
</linearGradient>
<linearGradient id="paint1_linear" x1="24.9235" y1="19.6184" x2="29.9206" y2="35.9529" gradientUnits="userSpaceOnUse">
<stop stop-color="#FC227C"/>
<stop offset="1" stop-color="#FEEB7B"/>
</linearGradient>
<linearGradient id="paint2_linear" x1="22.1296" y1="15.8895" x2="29.4614" y2="35.076" gradientUnits="userSpaceOnUse">
<stop stop-color="#0E4DA0"/>
<stop offset="1" stop-color="#6BFED4"/>
</linearGradient>
<linearGradient id="paint3_linear" x1="36.2947" y1="22.6479" x2="22.5912" y2="38.4341" gradientUnits="userSpaceOnUse">
<stop stop-color="#FC472E"/>
<stop offset="0.00331892" stop-color="#FC472F"/>
<stop offset="1" stop-color="#893CD8"/>
</linearGradient>
</defs>
</svg>
