<svg width="26" height="15" viewBox="0 0 26 15" fill="none" xmlns="http://www.w3.org/2000/svg">
<path fill-rule="evenodd" clip-rule="evenodd" d="M7.48549 1.69579C7.73497 1.44947 7.73497 1.05158 7.48549 0.805263C7.23839 0.558158 6.84049 0.558158 6.59418 0.805263L0.290232 7.10526C0.173389 7.22526 0.105494 7.38553 0.105494 7.5521C0.105494 7.55526 0.108652 7.56158 0.108652 7.56474C0.108652 7.57105 0.105494 7.57421 0.105494 7.58053C0.105494 7.78974 0.213652 7.96579 0.373915 8.07947L6.61865 14.3274C6.86576 14.5745 7.26602 14.5745 7.51313 14.3274C7.75944 14.0811 7.75944 13.6832 7.51313 13.4368L2.28918 8.20895L24.7363 8.20895C25.0852 8.20895 25.3687 7.92868 25.3687 7.58053C25.3687 7.22842 25.0852 6.94816 24.7363 6.94816L2.23628 6.94816L7.48549 1.69579Z" fill="#4E72CA"/>
</svg>
