<svg width="8" height="14" viewBox="0 0 8 14" fill="none" xmlns="http://www.w3.org/2000/svg">
<path fillRule="evenodd" clipRule="evenodd" d="M8 10.15C8 12.25 6.18182 14 4 14C1.81818 14 0 12.25 0 10.15V2.8C0 1.26 1.30909 0 2.90909 0C4.50909 0 5.81818 1.26 5.81818 2.8V8.75C5.81818 9.73 5.01818 10.5 4 10.5C2.98182 10.5 2.18182 9.73 2.18182 8.75V3.5H3.27273V8.75C3.27273 9.17 3.56364 9.45 4 9.45C4.43636 9.45 4.72727 9.17 4.72727 8.75V2.8C4.72727 1.82 3.92727 1.05 2.90909 1.05C1.89091 1.05 1.09091 1.82 1.09091 2.8V10.15C1.09091 11.69 2.4 12.95 4 12.95C5.6 12.95 6.90909 11.69 6.90909 10.15V3.5H8V10.15Z" fill="#A3A3B8"/>
</svg>
