<svg width="91" height="98" viewBox="0 0 91 98" fill="none" xmlns="http://www.w3.org/2000/svg">
<rect x="8" width="75" height="75" rx="20" fill="#F6DAC2"/>
<path fill-rule="evenodd" clip-rule="evenodd" d="M64 39.0667L65.375 39.4417C65.5973 39.4872 65.7914 39.6214 65.9125 39.8133C66.0336 40.0051 66.0712 40.2381 66.0167 40.4583L65.1833 43.4583C65.0652 43.9019 64.6107 44.1664 64.1667 44.05L63.8333 43.9583L62.0167 50.725C61.5803 52.3881 60.4931 53.8057 59 54.6583L54.1333 57.4583C52.7314 58.2721 51.0568 58.4742 49.5016 58.0172C47.9464 57.5603 46.6472 56.4844 45.9083 55.0417C45.8174 54.8659 45.7367 54.6851 45.6667 54.5H43.45V54.775C43.45 55.2352 43.0769 55.6083 42.6167 55.6083H38.1667C37.7064 55.6083 37.3333 55.2352 37.3333 54.775V54.5H31.5C30.1193 54.5 29 53.3807 29 52V34.1667H28.725C28.2648 34.1667 27.8917 33.7936 27.8917 33.3333V28.8833C27.8917 28.4231 28.2648 28.05 28.725 28.05H29V22C29 20.6193 30.1193 19.5 31.5 19.5H37.3333V19.225C37.3333 18.7648 37.7064 18.3917 38.1667 18.3917H42.65C43.1102 18.3917 43.4833 18.7648 43.4833 19.225V19.5H61.5C62.8807 19.5 64 20.6193 64 22V28.05H64.275C64.7352 28.05 65.1083 28.4231 65.1083 28.8833V33.3333C65.1083 33.7936 64.7352 34.1667 64.275 34.1667H64V39.0667ZM47.6667 32.5H63.4417V29.7167H47.6667C47.3624 30.2627 46.9447 30.7373 46.4417 31.1083C46.9447 31.4794 47.3624 31.9539 47.6667 32.5ZM43.4833 21.1667H61.5C61.9602 21.1667 62.3333 21.5398 62.3333 22V28.05H48.1667C48.1915 27.9038 48.2082 27.7564 48.2167 27.6083C48.2167 25.2151 46.2766 23.275 43.8833 23.275C43.7409 23.2802 43.599 23.2941 43.4583 23.3167L43.4833 21.1667ZM46.575 27.6083C46.575 26.1356 45.3811 24.9417 43.9083 24.9417C43.2011 24.9417 42.5228 25.2226 42.0227 25.7227C41.5226 26.2228 41.2417 26.9011 41.2417 27.6083V27.8917C42.4056 28.199 43.3134 29.11 43.6167 30.275H43.9083C45.3811 30.275 46.575 29.0811 46.575 27.6083ZM39.575 27.6083V27.8917C38.4078 28.1963 37.4963 29.1078 37.1917 30.275H36.9083C35.4356 30.275 34.2417 29.0811 34.2417 27.6083C34.2417 26.1356 35.4356 24.9417 36.9083 24.9417C38.3811 24.9417 39.575 26.1356 39.575 27.6083ZM42.075 31.1083C42.075 30.1879 41.3288 29.4417 40.4083 29.4417C39.4879 29.4417 38.7417 30.1879 38.7417 31.1083C38.7417 32.0288 39.4879 32.775 40.4083 32.775C41.3288 32.775 42.075 32.0288 42.075 31.1083ZM39 20.0583H41.7833V23.8333C41.2255 24.1347 40.7439 24.5594 40.375 25.075C40.0079 24.5768 39.5392 24.1621 39 23.8583V20.0583ZM31.5 21.1667C31.0398 21.1667 30.6667 21.5398 30.6667 22V28.05H32.5833C32.5585 27.9038 32.5418 27.7564 32.5333 27.6083C32.5379 25.2137 34.4804 23.275 36.875 23.275C37.0284 23.2802 37.1815 23.2942 37.3333 23.3167V21.1667H31.5ZM29.5583 32.5V29.7167H33.1667C33.4713 30.265 33.8923 30.7399 34.4 31.1083C33.8923 31.4767 33.4713 31.9517 33.1667 32.5H29.5583ZM31.5 52.8333H37.3333L37.3667 38.9417C37.214 38.9503 37.061 38.9503 36.9083 38.9417C34.5137 38.9417 32.5713 37.0029 32.5667 34.6083C32.5746 34.4603 32.5913 34.3128 32.6167 34.1667H30.6667V52C30.6667 52.4602 31.0398 52.8333 31.5 52.8333ZM36.875 37.275C35.9223 37.275 35.0419 36.7667 34.5656 35.9417C34.0892 35.1166 34.0892 34.1001 34.5656 33.275C35.0419 32.4499 35.9223 31.9417 36.875 31.9417H37.1583C37.463 33.1088 38.3745 34.0203 39.5417 34.325V34.6083C39.5418 36.0682 38.3681 37.2567 36.9083 37.275H36.875ZM39 53.9417H41.7833V38.3833C41.2282 38.0782 40.7472 37.6542 40.375 37.1417C40.0079 37.6399 39.5392 38.0546 39 38.3583V53.9417ZM41.2083 34.6083V34.325C42.3723 34.0177 43.2801 33.1067 43.5833 31.9417H43.875C45.3478 31.9417 46.5417 33.1356 46.5417 34.6083C46.5417 36.0811 45.3478 37.275 43.875 37.275C42.4022 37.275 41.2083 36.0811 41.2083 34.6083ZM43.4833 52.8333H45.275C45.1107 50.5005 46.3001 48.2805 48.3333 47.125L50.9917 45.55C51.0584 45.5087 51.1062 45.4429 51.125 45.3667L52.3333 40.8667L52 40.775C51.5598 40.6532 51.2996 40.1998 51.4167 39.7583L52.25 36.7583C52.3681 36.3148 52.8227 36.0502 53.2667 36.1667L62.3333 38.6667V34.1667H48.1667C48.1989 34.2985 48.2239 34.4321 48.2417 34.5667C48.2417 36.9599 46.3016 38.9 43.9083 38.9C43.7668 38.9086 43.6249 38.9086 43.4833 38.9V52.8333ZM51.4417 56.5583C50.945 56.5995 50.4449 56.5487 49.9667 56.4083C48.6762 56.05 47.6366 55.0932 47.1727 53.8368C46.7088 52.5805 46.8771 51.1777 47.625 50.0667C49.9667 51.0575 51.4845 53.3573 51.475 55.9C51.5 56.1667 51.5 56.35 51.4417 56.5583ZM58.1667 53.2167C59.2552 52.5835 60.0513 51.548 60.3833 50.3333L60.5667 49.7C58.8737 49.8343 57.566 51.2434 57.5583 52.9417C57.5636 53.1377 57.5859 53.3329 57.625 53.525L58.1667 53.2167ZM60.9917 48.0583H60.8C58.0773 48.0629 55.8713 50.269 55.8667 52.9917C55.8689 53.4869 55.9476 53.9788 56.1 54.45L53.2917 56.0667C53.2373 56.0882 53.1844 56.1133 53.1333 56.1417V55.9917C53.1513 52.996 51.5043 50.2381 48.8583 48.8333C48.8963 48.808 48.933 48.7804 48.9699 48.7526C49.0303 48.7071 49.0911 48.6612 49.1583 48.625L51.85 47C52.3051 46.7442 52.6362 46.3138 52.7667 45.8083L54 41.325L62.225 43.525L60.9917 48.0583ZM53.275 39.4083L63.7667 42.2667L64.1333 40.8333L53.6417 38.0167L53.275 39.4083Z" fill="#3D3D63"/>
<path d="M0.154 93V91.208C0.751333 91.292 1.19 91.1707 1.47 90.844C1.75 90.508 1.89 89.892 1.89 88.996V83.2H8.554V93H6.636V85.048H3.808V88.94C3.808 90.6293 3.42067 91.7727 2.646 92.37C1.98333 92.8927 1.15267 93.1027 0.154 93ZM12.0509 89.976L15.3409 86H16.6849V93H14.9209V89.024L11.6309 93H10.2869V86H12.0509V89.976ZM22.4697 89.08V86H24.2757V93H22.4697V90.774C21.947 90.942 21.3917 91.026 20.8037 91.026C19.945 91.026 19.2637 90.8067 18.7597 90.368C18.2557 89.9293 18.0037 89.3087 18.0037 88.506V86H19.8097V88.296C19.8097 88.996 20.2437 89.346 21.1117 89.346C21.625 89.346 22.0777 89.2573 22.4697 89.08ZM30.5059 88.646V86H32.3119V93H30.5059V90.34H27.7199V93H25.9139V86H27.7199V88.646H30.5059ZM35.7726 88.24H37.1306C37.924 88.24 38.5633 88.4593 39.0486 88.898C39.534 89.3273 39.7766 89.9013 39.7766 90.62C39.7766 91.3387 39.534 91.9173 39.0486 92.356C38.5633 92.7853 37.924 93 37.1306 93H33.9666V86H35.7726V88.24ZM40.5466 93V86H42.3526V93H40.5466ZM35.7726 91.404H37.1446C37.3966 91.404 37.602 91.334 37.7606 91.194C37.9286 91.0447 38.0126 90.8533 38.0126 90.62C38.0126 90.3867 37.9286 90.1953 37.7606 90.046C37.602 89.8967 37.3966 89.822 37.1446 89.822H35.7726V91.404ZM50.8058 90.242H45.5278C45.7611 91.1193 46.4191 91.558 47.5018 91.558C48.1924 91.558 48.7151 91.3247 49.0698 90.858L50.5258 91.698C49.8351 92.6967 48.8178 93.196 47.4738 93.196C46.3164 93.196 45.3878 92.846 44.6878 92.146C43.9878 91.446 43.6378 90.564 43.6378 89.5C43.6378 88.4547 43.9831 87.5773 44.6738 86.868C45.3551 86.1587 46.2418 85.804 47.3338 85.804C48.3698 85.804 49.2144 86.1587 49.8678 86.868C50.5398 87.5773 50.8758 88.4547 50.8758 89.5C50.8758 89.696 50.8524 89.9433 50.8058 90.242ZM45.4998 88.842H49.0698C48.9671 88.3847 48.7571 88.0347 48.4398 87.792C48.1318 87.5493 47.7631 87.428 47.3338 87.428C46.8484 87.428 46.4471 87.554 46.1298 87.806C45.8124 88.0487 45.6024 88.394 45.4998 88.842ZM60.6765 89.416C61.3299 89.7333 61.6565 90.2653 61.6565 91.012C61.6565 91.6093 61.4512 92.09 61.0405 92.454C60.6299 92.818 60.0559 93 59.3185 93H55.6365V86H59.0385C59.7665 86 60.3359 86.182 60.7465 86.546C61.1572 86.9007 61.3625 87.3767 61.3625 87.974C61.3625 88.59 61.1339 89.0707 60.6765 89.416ZM58.8705 87.484H57.3305V88.744H58.8705C59.3839 88.744 59.6405 88.534 59.6405 88.114C59.6405 87.694 59.3839 87.484 58.8705 87.484ZM57.3305 91.474H59.1085C59.6312 91.474 59.8925 91.25 59.8925 90.802C59.8925 90.606 59.8225 90.452 59.6825 90.34C59.5425 90.228 59.3512 90.172 59.1085 90.172H57.3305V91.474ZM69.5909 90.242H64.3129C64.5463 91.1193 65.2043 91.558 66.2869 91.558C66.9776 91.558 67.5003 91.3247 67.8549 90.858L69.3109 91.698C68.6203 92.6967 67.6029 93.196 66.2589 93.196C65.1016 93.196 64.1729 92.846 63.4729 92.146C62.7729 91.446 62.4229 90.564 62.4229 89.5C62.4229 88.4547 62.7683 87.5773 63.4589 86.868C64.1403 86.1587 65.0269 85.804 66.1189 85.804C67.1549 85.804 67.9996 86.1587 68.6529 86.868C69.3249 87.5773 69.6609 88.4547 69.6609 89.5C69.6609 89.696 69.6376 89.9433 69.5909 90.242ZM64.2849 88.842H67.8549C67.7523 88.3847 67.5423 88.0347 67.2249 87.792C66.9169 87.5493 66.5483 87.428 66.1189 87.428C65.6336 87.428 65.2323 87.554 64.9149 87.806C64.5976 88.0487 64.3876 88.394 64.2849 88.842ZM80.7217 86V91.306H81.6457V94.876H79.8817V93H70.9217V86H72.7277V91.306H74.9117V86H76.7177V91.306H78.9157V86H80.7217ZM84.5529 89.976L87.8429 86H89.1869V93H87.4229V89.024L84.1329 93H82.7889V86H84.5529V89.976Z" fill="#4A4A4A"/>
</svg>
