<svg width="109" height="98" viewBox="0 0 109 98" fill="none" xmlns="http://www.w3.org/2000/svg">
<rect x="17" width="75" height="75" rx="20" fill="#FF9E83"/>
<path fill-rule="evenodd" clip-rule="evenodd" d="M72.15 56.4417H74.3833V56.45C74.8436 56.45 75.2167 56.8231 75.2167 57.2833C75.2167 57.7436 74.8436 58.1167 74.3833 58.1167H37.6167C37.1564 58.1167 36.7833 57.7436 36.7833 57.2833C36.7833 56.8231 37.1564 56.45 37.6167 56.45H39.85V55.825C39.8546 51.5711 43.3044 48.125 47.5583 48.125H48.5L48.2 47.5833C48.0511 47.3255 48.0511 47.0078 48.2 46.75L49.4 44.6667C47.3246 42.8895 46.091 40.3225 46 37.5917C44.0637 37.276 42.6255 35.6279 42.575 33.6667V32.6083C42.6113 31.2906 43.7071 30.2507 45.025 30.2833H46V29.375H44.7417C43.3516 29.2966 42.2645 28.1465 42.2645 26.7542C42.2645 25.3619 43.3516 24.2118 44.7417 24.1333H46.8333V19.8C46.8316 18.5355 47.4417 17.3482 48.471 16.6135C49.5002 15.8788 50.8213 15.6875 52.0167 16.1L54.7167 17C55.5488 17.2832 56.4512 17.2832 57.2833 17L59.9917 16.1C61.186 15.6908 62.5045 15.8838 63.5315 16.6181C64.5585 17.3524 65.1675 18.5375 65.1667 19.8V24.1333H67.2667C68.6568 24.2118 69.7438 25.3619 69.7438 26.7542C69.7438 28.1465 68.6568 29.2966 67.2667 29.375H66V30.2833H66.975C68.2929 30.2507 69.3886 31.2906 69.425 32.6083V33.6667C69.3745 35.6279 67.9363 37.276 66 37.5917C65.9092 40.3267 64.6722 42.8974 62.5917 44.675L63.7917 46.7583C63.9405 47.0162 63.9405 47.3338 63.7917 47.5917L63.5 48.1167H63.7667H64.4417C68.6956 48.1167 72.1454 51.5627 72.15 55.8167V56.4417ZM44.2417 33.6667C44.2828 34.7059 44.9954 35.5975 46 35.8667V31.95H45.025C44.6271 31.9163 44.2769 32.2106 44.2417 32.6083V33.6667ZM62.1 47.175L59.525 51.8917L57.2 49.575L61.3 45.8L62.1 47.175ZM67.7583 32.6083C67.723 32.2106 67.3728 31.9163 66.975 31.95H66V35.8667C67.0046 35.5975 67.7171 34.7059 67.7583 33.6667V32.6083ZM48.5 19.8C48.4947 19.0739 48.8468 18.3915 49.4417 17.975C50.031 17.5519 50.7886 17.4401 51.475 17.675L54.1667 18.6C55.3504 19.0001 56.6329 19.0001 57.8167 18.6L60.5083 17.675C61.1947 17.4401 61.9524 17.5519 62.5417 17.975C63.1428 18.3878 63.5015 19.0708 63.5 19.8V21.1167H48.5V19.8ZM63.5 22.7833H48.5V24.1333H63.5V22.7833ZM44.7333 27.7083C44.2408 27.6623 43.8643 27.2489 43.8643 26.7542C43.8643 26.2595 44.2408 25.8461 44.7333 25.8H67.2333C67.7259 25.8461 68.1024 26.2595 68.1024 26.7542C68.1024 27.2489 67.7259 27.6623 67.2333 27.7083H44.7333ZM47.6667 29.375V37.3C47.6667 41.9024 51.3976 45.6334 56 45.6334C60.6024 45.6334 64.3333 41.9024 64.3333 37.3V29.375H47.6667ZM56 47.1167C56.5216 47.1161 57.0424 47.0771 57.5583 47L56 48.4167L54.4417 47C54.9575 47.0771 55.4784 47.1161 56 47.1167ZM52.475 51.9333L54.8 49.6167L50.7333 45.8417L49.9 47.2167L52.475 51.9333ZM53.225 56.4834H41.5167V55.8584C41.5213 52.5249 44.2249 49.825 47.5583 49.825H48.4417C48.7545 49.8223 49.0666 49.7944 49.375 49.7417L51.55 53.6667C51.6731 53.899 51.8985 54.0596 52.1583 54.1H52.2833C52.5031 54.0969 52.7128 54.007 52.8667 53.85L53.05 53.675C53.1498 54.0309 53.4721 54.2786 53.8417 54.2834L53.225 56.4834ZM55.6083 54.3333L54.9667 56.4833H57.0333L56.3917 54.3333H55.6083ZM57.4667 52.6667H54.55L54.4833 52.2917L56 50.7333L57.525 52.25L57.4667 52.6667ZM58.775 56.4833H70.4917L70.5 55.8167C70.4954 52.4832 67.7918 49.7833 64.4583 49.7833H63.7833C63.4079 49.7793 63.0337 49.7374 62.6667 49.6583L60.425 53.7167C60.3019 53.949 60.0764 54.1096 59.8167 54.15H59.6917C59.4719 54.1469 59.2622 54.057 59.1083 53.9L58.925 53.725C58.8252 54.0809 58.5029 54.3286 58.1333 54.3333L58.775 56.4833Z" fill="#3D3D63"/>
<path d="M52.7334 39.0833C52.5296 39.1711 52.3692 39.3367 52.2879 39.5432C52.2065 39.7496 52.2109 39.9801 52.3 40.1833C52.9397 41.6573 54.3932 42.6111 56 42.6111C57.6069 42.6111 59.0604 41.6573 59.7 40.1833C59.8887 39.7599 59.6985 39.2637 59.275 39.075C58.8516 38.8863 58.3554 39.0766 58.1667 39.5C57.7945 40.3659 56.9425 40.927 56 40.927C55.0575 40.927 54.2055 40.3659 53.8334 39.5C53.644 39.0818 53.1522 38.8956 52.7334 39.0833Z" fill="#3D3D63"/>
<path d="M52.3 34.1667C52.7602 34.1667 53.1333 33.7936 53.1333 33.3334V32.375C53.1333 31.9148 52.7602 31.5417 52.3 31.5417C51.8398 31.5417 51.4667 31.9148 51.4667 32.375V33.3334C51.4667 33.7936 51.8398 34.1667 52.3 34.1667Z" fill="#3D3D63"/>
<path d="M59.7 34.1667C60.1603 34.1667 60.5334 33.7936 60.5334 33.3334V32.375C60.5334 31.9148 60.1603 31.5417 59.7 31.5417C59.2398 31.5417 58.8667 31.9148 58.8667 32.375V33.3334C58.8667 33.7936 59.2398 34.1667 59.7 34.1667Z" fill="#3D3D63"/>
<path d="M6.342 86.91H8.162C9.12333 86.91 9.90267 87.1947 10.5 87.764C11.1067 88.324 11.41 89.052 11.41 89.948C11.41 90.844 11.1067 91.5813 10.5 92.16C9.90267 92.72 9.12333 93 8.162 93H4.41V83.2H10.57V85.048H6.342V86.91ZM6.342 91.194H8.162C8.554 91.194 8.87133 91.082 9.114 90.858C9.366 90.634 9.492 90.3307 9.492 89.948C9.492 89.5653 9.366 89.2667 9.114 89.052C8.87133 88.828 8.554 88.716 8.162 88.716H6.342V91.194ZM14.2795 89.976L17.5695 86H18.9135V93H17.1495V89.024L13.8595 93H12.5155V86H14.2795V89.976ZM24.6702 89.43C25.3795 89.7753 25.7342 90.3307 25.7342 91.096C25.7342 91.712 25.4822 92.216 24.9782 92.608C24.4742 93 23.7835 93.196 22.9062 93.196C21.4875 93.196 20.5215 92.636 20.0082 91.516L21.4782 90.648C21.7022 91.2827 22.1829 91.6 22.9202 91.6C23.2562 91.6 23.5129 91.5347 23.6902 91.404C23.8769 91.2733 23.9702 91.096 23.9702 90.872C23.9702 90.4427 23.6949 90.228 23.1442 90.228H22.1502V88.688H22.9062C23.4475 88.688 23.7182 88.4733 23.7182 88.044C23.7182 87.8387 23.6389 87.6753 23.4802 87.554C23.3215 87.4327 23.1115 87.372 22.8502 87.372C22.2529 87.372 21.8189 87.666 21.5482 88.254L20.0922 87.414C20.6242 86.3407 21.5342 85.804 22.8222 85.804C23.6249 85.804 24.2595 86.0093 24.7262 86.42C25.2022 86.8307 25.4402 87.3207 25.4402 87.89C25.4402 88.5713 25.1835 89.0847 24.6702 89.43ZM31.4629 88.646V86H33.2689V93H31.4629V90.34H28.6769V93H26.8709V86H28.6769V88.646H31.4629ZM41.7277 90.242H36.4497C36.683 91.1193 37.341 91.558 38.4237 91.558C39.1143 91.558 39.637 91.3247 39.9917 90.858L41.4477 91.698C40.757 92.6967 39.7397 93.196 38.3957 93.196C37.2383 93.196 36.3097 92.846 35.6097 92.146C34.9097 91.446 34.5597 90.564 34.5597 89.5C34.5597 88.4547 34.905 87.5773 35.5957 86.868C36.277 86.1587 37.1637 85.804 38.2557 85.804C39.2917 85.804 40.1363 86.1587 40.7897 86.868C41.4617 87.5773 41.7977 88.4547 41.7977 89.5C41.7977 89.696 41.7743 89.9433 41.7277 90.242ZM36.4217 88.842H39.9917C39.889 88.3847 39.679 88.0347 39.3617 87.792C39.0537 87.5493 38.685 87.428 38.2557 87.428C37.7703 87.428 37.369 87.554 37.0517 87.806C36.7343 88.0487 36.5243 88.394 36.4217 88.842ZM46.3357 93.196C45.2811 93.196 44.3991 92.8413 43.6897 92.132C42.9897 91.4227 42.6397 90.5453 42.6397 89.5C42.6397 88.4547 42.9897 87.5773 43.6897 86.868C44.3991 86.1587 45.2811 85.804 46.3357 85.804C47.0171 85.804 47.6377 85.9673 48.1977 86.294C48.7577 86.6207 49.1824 87.0593 49.4717 87.61L47.9177 88.52C47.7777 88.2307 47.5631 88.002 47.2737 87.834C46.9937 87.666 46.6764 87.582 46.3217 87.582C45.7804 87.582 45.3324 87.764 44.9777 88.128C44.6231 88.4827 44.4457 88.94 44.4457 89.5C44.4457 90.0413 44.6231 90.4987 44.9777 90.872C45.3324 91.2267 45.7804 91.404 46.3217 91.404C46.6857 91.404 47.0077 91.3247 47.2877 91.166C47.5771 90.998 47.7917 90.7693 47.9317 90.48L49.4997 91.376C49.1917 91.936 48.7531 92.3793 48.1837 92.706C47.6237 93.0327 47.0077 93.196 46.3357 93.196ZM55.7736 89.976L59.0636 86H60.4076V93H58.6436V89.024L55.3536 93H54.0096V86H55.7736V89.976ZM68.5723 90.704L70.1263 86H72.0583L69.5103 93C68.801 94.9693 67.569 95.9027 65.8143 95.8V94.12C66.2903 94.1293 66.6637 94.0407 66.9343 93.854C67.2143 93.6673 67.4383 93.3547 67.6063 92.916L64.7783 86H66.6963L68.5723 90.704ZM75.9764 93.196C74.9217 93.196 74.0397 92.8413 73.3304 92.132C72.6304 91.4227 72.2804 90.5453 72.2804 89.5C72.2804 88.4547 72.6304 87.5773 73.3304 86.868C74.0397 86.1587 74.9217 85.804 75.9764 85.804C76.6577 85.804 77.2784 85.9673 77.8384 86.294C78.3984 86.6207 78.823 87.0593 79.1124 87.61L77.5584 88.52C77.4184 88.2307 77.2037 88.002 76.9144 87.834C76.6344 87.666 76.317 87.582 75.9624 87.582C75.421 87.582 74.973 87.764 74.6184 88.128C74.2637 88.4827 74.0864 88.94 74.0864 89.5C74.0864 90.0413 74.2637 90.4987 74.6184 90.872C74.973 91.2267 75.421 91.404 75.9624 91.404C76.3264 91.404 76.6484 91.3247 76.9284 91.166C77.2177 90.998 77.4324 90.7693 77.5724 90.48L79.1404 91.376C78.8324 91.936 78.3937 92.3793 77.8244 92.706C77.2644 93.0327 76.6484 93.196 75.9764 93.196ZM80.4618 86H86.0058V93H84.1998V87.736H82.2678V90.074C82.2678 92.23 81.2832 93.2053 79.3138 93V91.306C79.6872 91.3993 79.9718 91.334 80.1678 91.11C80.3638 90.886 80.4618 90.508 80.4618 89.976V86ZM90.6524 90.704L92.2064 86H94.1384L91.5904 93C90.8811 94.9693 89.6491 95.9027 87.8944 95.8V94.12C88.3704 94.1293 88.7437 94.0407 89.0144 93.854C89.2944 93.6673 89.5184 93.3547 89.6864 92.916L86.8584 86H88.7764L90.6524 90.704ZM94.9979 86H99.7859V87.736H96.8039V93H94.9979V86ZM102.518 89.976L105.808 86H107.152V93H105.388V89.024L102.098 93H100.754V86H102.518V89.976Z" fill="#4A4A4A"/>
</svg>
