<svg width="102" height="98" viewBox="0 0 102 98" fill="none" xmlns="http://www.w3.org/2000/svg">
<rect x="14" width="75" height="75" rx="20" fill="#B4E2E1"/>
<path fill-rule="evenodd" clip-rule="evenodd" d="M50.9556 50.5454V45.39C50.9556 44.9632 50.6096 44.6171 50.1827 44.6171H40.6913C40.2644 44.6171 39.9184 44.9632 39.9184 45.39V50.5454C39.5496 50.6167 39.2855 50.9428 39.2923 51.3183C39.2923 51.7452 39.6384 52.0912 40.0652 52.0912H50.8165C51.2434 52.0912 51.5894 51.7452 51.5894 51.3183C51.5956 50.9404 51.3275 50.6134 50.9556 50.5454ZM44.6641 50.5454H41.4642V46.163H44.6641V50.5454ZM46.2099 50.5454H49.4098V46.163H46.2099V50.5454Z" fill="#3D3D63"/>
<path d="M57.7727 51.2874C58.2978 51.2874 58.7234 50.8617 58.7234 50.3367C58.7234 49.8116 58.2978 49.386 57.7727 49.386C57.2477 49.386 56.8221 49.8116 56.8221 50.3367C56.8221 50.8617 57.2477 51.2874 57.7727 51.2874Z" fill="#3D3D63"/>
<path fill-rule="evenodd" clip-rule="evenodd" d="M67.5888 55.5848H69.7375C70.1644 55.5848 70.5104 55.9309 70.5104 56.3577C70.5104 56.7846 70.1644 57.1306 69.7375 57.1306H32.6375C32.2106 57.1306 31.8646 56.7846 31.8646 56.3577C31.8646 55.9309 32.2106 55.5848 32.6375 55.5848H34.7862V42.6771C34.4662 42.5183 34.1718 42.3125 33.9128 42.0665C33.1397 41.3251 32.7016 40.301 32.6993 39.2299C32.6913 39.1631 32.6913 39.0957 32.6993 39.0289L35.2036 29.9703C35.2998 29.6262 35.6194 29.3929 35.9765 29.4061H42.2294V27.2806H40.4131C39.9862 27.2806 39.6401 26.9345 39.6401 26.5077V21.2673C39.6401 20.8404 39.9862 20.4944 40.4131 20.4944H61.962C62.3888 20.4944 62.7349 20.8404 62.7349 21.2673V26.5077C62.7349 26.9345 62.3888 27.2806 61.962 27.2806H60.1456V29.4061H66.4294C66.7865 29.3929 67.1061 29.6262 67.2023 29.9703L69.7375 39.1681C69.7455 39.2348 69.7455 39.3023 69.7375 39.369C69.739 40.8112 68.8995 42.1218 67.5888 42.7235V55.5848ZM57.4249 27.4352V29.2515H58.5998V27.4352H57.4249ZM41.1937 22.0402H61.1891V25.7348H41.186L41.1937 22.0402ZM44.9578 29.267V27.4506L43.7752 27.4352V29.267H44.9578ZM46.5036 27.2961H55.8791V29.4216H46.4959L46.5036 27.2961ZM55.9023 55.5848H60.9108V46.1629H55.9023V55.5848ZM66.043 55.5848H62.4566V45.39C62.4566 44.9632 62.1106 44.6171 61.6837 44.6171H55.1294C54.7025 44.6171 54.3565 44.9632 54.3565 45.39V55.5848H36.3321V43.0867H36.5485C37.4842 43.0531 38.3717 42.6633 39.0295 41.9969C39.1479 41.8826 39.2565 41.7585 39.3542 41.6259C40.0603 42.5464 41.1543 43.0862 42.3144 43.0867C43.3041 43.0944 44.2548 42.7013 44.9501 41.9969C45.0644 41.8815 45.1728 41.7602 45.2747 41.6337C45.9808 42.5491 47.0712 43.0857 48.2272 43.0867C49.2168 43.0935 50.1671 42.7005 50.8629 41.9969C50.9792 41.8806 51.0876 41.7566 51.1875 41.6259C51.8937 42.5464 52.9876 43.0862 54.1478 43.0867C55.1346 43.0914 56.0818 42.6986 56.7757 41.9969C56.892 41.8806 57.0004 41.7566 57.1003 41.6259C57.8065 42.5464 58.9005 43.0862 60.0606 43.0867C61.0501 43.0935 62.0005 42.7005 62.6962 41.9969C62.8106 41.8815 62.9189 41.7602 63.0209 41.6337C63.7254 42.5509 64.8168 43.088 65.9734 43.0867H66.043V55.5848ZM63.7938 39.369C63.7938 40.574 64.7684 41.5521 65.9734 41.5564C66.547 41.5619 67.0986 41.3362 67.5038 40.9303C67.8934 40.5443 68.1226 40.0252 68.1453 39.4772L65.8266 30.9751H62.2711L63.1909 35.9914C63.2661 36.4093 62.99 36.8097 62.5726 36.8879H62.4334C62.0555 36.8941 61.7285 36.626 61.6605 36.2542L60.6867 30.9597H57.1003L57.5718 36.0377C57.5911 36.2429 57.5277 36.4473 57.3956 36.6055C57.2635 36.7637 57.0738 36.8626 56.8684 36.8802H56.7989C56.3978 36.8818 56.0621 36.5764 56.026 36.1769L55.5468 30.9519H51.9604V36.1073C51.9604 36.5342 51.6144 36.8802 51.1875 36.8802C50.7606 36.8802 50.4146 36.5342 50.4146 36.1073V30.9288H46.8205L46.3413 36.1537C46.3052 36.5532 45.9695 36.8587 45.5684 36.857H45.4988C45.2935 36.8394 45.1038 36.7405 44.9717 36.5823C44.8396 36.4241 44.7762 36.2197 44.7955 36.0146L45.267 30.9365H41.6806L40.7068 36.231C40.6388 36.6028 40.3118 36.8709 39.9338 36.8648H39.7947C39.3773 36.7865 39.1012 36.3862 39.1764 35.9682L40.0962 30.9519H36.5407L34.222 39.3304C34.2475 39.946 34.5107 40.5279 34.9563 40.9535C35.3691 41.3548 35.9266 41.5722 36.5021 41.5564C37.6695 41.5025 38.5866 40.5376 38.5812 39.369C38.5812 38.9421 38.9273 38.5961 39.3542 38.5961C39.781 38.5961 40.1271 38.9421 40.1271 39.369C40.1271 40.5771 41.1064 41.5564 42.3144 41.5564C43.5225 41.5564 44.5018 40.5771 44.5018 39.369C44.5018 38.9421 44.8478 38.5961 45.2747 38.5961C45.7016 38.5961 46.0476 38.9421 46.0476 39.369C45.9993 40.1801 46.4046 40.9511 47.1001 41.3712C47.7956 41.7914 48.6666 41.7914 49.3621 41.3712C50.0576 40.9511 50.4629 40.1801 50.4146 39.369C50.4146 38.9421 50.7606 38.5961 51.1875 38.5961C51.6144 38.5961 51.9604 38.9421 51.9604 39.369C51.9647 40.571 52.938 41.5444 54.1401 41.5486C55.3451 41.5444 56.3197 40.5663 56.3197 39.3613C56.3197 38.9344 56.6657 38.5884 57.0926 38.5884C57.5195 38.5884 57.8655 38.9344 57.8655 39.3613C57.8655 40.5693 58.8448 41.5486 60.0529 41.5486C60.6329 41.5563 61.191 41.3275 61.5987 40.9148C62.0126 40.5067 62.2463 39.9502 62.2479 39.369C62.2479 38.9421 62.594 38.5961 63.0209 38.5961C63.4477 38.5961 63.7938 38.9421 63.7938 39.369Z" fill="#3D3D63"/>
<path d="M9.982 87.092V83.2H11.9V93H9.982V88.94H6.342V93H4.41V83.2H6.342V87.092H9.982ZM20.4405 90.242H15.1625C15.3959 91.1193 16.0539 91.558 17.1365 91.558C17.8272 91.558 18.3499 91.3247 18.7045 90.858L20.1605 91.698C19.4699 92.6967 18.4525 93.196 17.1085 93.196C15.9512 93.196 15.0225 92.846 14.3225 92.146C13.6225 91.446 13.2725 90.564 13.2725 89.5C13.2725 88.4547 13.6179 87.5773 14.3085 86.868C14.9899 86.1587 15.8765 85.804 16.9685 85.804C18.0045 85.804 18.8492 86.1587 19.5025 86.868C20.1745 87.5773 20.5105 88.4547 20.5105 89.5C20.5105 89.696 20.4872 89.9433 20.4405 90.242ZM15.1345 88.842H18.7045C18.6019 88.3847 18.3919 88.0347 18.0745 87.792C17.7665 87.5493 17.3979 87.428 16.9685 87.428C16.4832 87.428 16.0819 87.554 15.7645 87.806C15.4472 88.0487 15.2372 88.394 15.1345 88.842ZM27.7979 86V91.306H28.7219V94.876H26.9579V93H22.6179V94.876H20.8539V91.306H21.7079C22.1092 90.7087 22.3099 89.8827 22.3099 88.828V86H27.7979ZM23.6399 91.306H26.0339V87.624H24.0739V88.828C24.0739 89.836 23.9292 90.662 23.6399 91.306ZM34.9051 89.416C35.5584 89.7333 35.8851 90.2653 35.8851 91.012C35.8851 91.6093 35.6797 92.09 35.2691 92.454C34.8584 92.818 34.2844 93 33.5471 93H29.8651V86H33.2671C33.9951 86 34.5644 86.182 34.9751 86.546C35.3857 86.9007 35.5911 87.3767 35.5911 87.974C35.5911 88.59 35.3624 89.0707 34.9051 89.416ZM33.0991 87.484H31.5591V88.744H33.0991C33.6124 88.744 33.8691 88.534 33.8691 88.114C33.8691 87.694 33.6124 87.484 33.0991 87.484ZM31.5591 91.474H33.3371C33.8597 91.474 34.1211 91.25 34.1211 90.802C34.1211 90.606 34.0511 90.452 33.9111 90.34C33.7711 90.228 33.5797 90.172 33.3371 90.172H31.5591V91.474ZM38.7795 89.976L42.0695 86H43.4135V93H41.6495V89.024L38.3595 93H37.0155V86H38.7795V89.976ZM51.9842 89.458L54.5182 93H52.4882L50.3462 89.864V93H48.5822V89.864L46.4402 93H44.4242L46.9442 89.458L44.5642 86H46.5802L48.5822 89.038V86H50.3462V89.038L52.3482 86H54.3782L51.9842 89.458ZM57.2775 89.976L60.5675 86H61.9115V93H60.1475V89.024L56.8575 93H55.5135V86H57.2775V89.976ZM69.0682 86H70.8462V93H69.0962V88.912L67.3182 91.712H67.0942L65.3022 88.884V93H63.5662V86H65.3442L67.2062 88.94L69.0682 86ZM78.458 92.132C77.7486 92.8413 76.8713 93.196 75.826 93.196C74.7806 93.196 73.9033 92.8413 73.194 92.132C72.4846 91.4227 72.13 90.5453 72.13 89.5C72.13 88.464 72.4846 87.5913 73.194 86.882C73.9126 86.1633 74.79 85.804 75.826 85.804C76.862 85.804 77.7393 86.1633 78.458 86.882C79.1766 87.6007 79.536 88.4733 79.536 89.5C79.536 90.536 79.1766 91.4133 78.458 92.132ZM74.468 90.886C74.832 91.25 75.2846 91.432 75.826 91.432C76.3673 91.432 76.82 91.25 77.184 90.886C77.548 90.522 77.73 90.06 77.73 89.5C77.73 88.94 77.548 88.478 77.184 88.114C76.82 87.75 76.3673 87.568 75.826 87.568C75.2846 87.568 74.832 87.75 74.468 88.114C74.1133 88.4873 73.936 88.9493 73.936 89.5C73.936 90.0507 74.1133 90.5127 74.468 90.886ZM84.1385 93.196C83.0838 93.196 82.2018 92.8413 81.4925 92.132C80.7925 91.4227 80.4425 90.5453 80.4425 89.5C80.4425 88.4547 80.7925 87.5773 81.4925 86.868C82.2018 86.1587 83.0838 85.804 84.1385 85.804C84.8198 85.804 85.4405 85.9673 86.0005 86.294C86.5605 86.6207 86.9851 87.0593 87.2745 87.61L85.7205 88.52C85.5805 88.2307 85.3658 88.002 85.0765 87.834C84.7965 87.666 84.4791 87.582 84.1245 87.582C83.5831 87.582 83.1351 87.764 82.7805 88.128C82.4258 88.4827 82.2485 88.94 82.2485 89.5C82.2485 90.0413 82.4258 90.4987 82.7805 90.872C83.1351 91.2267 83.5831 91.404 84.1245 91.404C84.4885 91.404 84.8105 91.3247 85.0905 91.166C85.3798 90.998 85.5945 90.7693 85.7345 90.48L87.3025 91.376C86.9945 91.936 86.5558 92.3793 85.9865 92.706C85.4265 93.0327 84.8105 93.196 84.1385 93.196ZM87.5306 86H93.7326V87.736H91.5486V93H89.7426V87.736H87.5306V86ZM96.5031 88.24H97.8611C98.6544 88.24 99.2938 88.4593 99.7791 88.898C100.264 89.3273 100.507 89.9013 100.507 90.62C100.507 91.3387 100.264 91.9173 99.7791 92.356C99.2938 92.7853 98.6544 93 97.8611 93H94.6971V86H96.5031V88.24ZM96.5031 91.404H97.8751C98.1271 91.404 98.3324 91.334 98.4911 91.194C98.6591 91.0447 98.7431 90.8533 98.7431 90.62C98.7431 90.3867 98.6591 90.1953 98.4911 90.046C98.3324 89.8967 98.1271 89.822 97.8751 89.822H96.5031V91.404Z" fill="#4A4A4A"/>
</svg>
