<svg width="93" height="98" viewBox="0 0 93 98" fill="none" xmlns="http://www.w3.org/2000/svg">
<rect x="9" width="75" height="75" rx="20" fill="#FF9E83"/>
<path fill-rule="evenodd" clip-rule="evenodd" d="M67.1917 38.3667H66.9167V25.4417C66.9167 24.0609 65.7974 22.9417 64.4167 22.9417H29.975C28.5943 22.9417 27.475 24.0609 27.475 25.4417V46.55C27.4728 47.0664 27.6764 47.5624 28.0407 47.9283C28.4051 48.2943 28.9003 48.5 29.4167 48.5H40.7583L39.925 51.5833H38.8583C37.1895 51.5853 35.7408 52.7339 35.3583 54.3583H33.3083C32.8481 54.3583 32.475 54.7314 32.475 55.1917C32.475 55.6519 32.8481 56.025 33.3083 56.025H56.375C56.4533 57.0352 57.2951 57.8153 58.3083 57.8167H67.1917C68.2686 57.8167 69.1417 56.9436 69.1417 55.8666V40.3167C69.1417 39.2397 68.2686 38.3667 67.1917 38.3667ZM40.25 24.6083H64.4167C64.8769 24.6083 65.25 24.9814 65.25 25.4417V38.3667H58.3083C57.2314 38.3667 56.3583 39.2397 56.3583 40.3167V42.9417H40.25V24.6083ZM55.525 51.5833C55.8056 51.5863 56.085 51.6198 56.3583 51.6833L56.3917 48.5H53.6583L54.4917 51.5833H55.525ZM29.1417 25.4417C29.1417 24.9814 29.5148 24.6083 29.975 24.6083H38.5833V42.9417H29.1417V25.4417ZM29.1417 46.55C29.1416 46.7033 29.2634 46.8288 29.4167 46.8333H56.3583V44.6083H29.1417V46.55ZM52.75 51.5833H41.625L42.4583 48.5H51.9167L52.75 51.5833ZM55.5167 53.25H38.8583C38.1102 53.2514 37.4294 53.6826 37.1083 54.3583H56.35V53.4417C56.0906 53.3147 55.8055 53.2491 55.5167 53.25ZM67.4667 55.8666C67.4667 55.9418 67.4368 56.0139 67.3837 56.067C67.3305 56.1201 67.2585 56.15 67.1833 56.15H58.3083C58.2332 56.15 58.1611 56.1201 58.108 56.067C58.0548 56.0139 58.025 55.9418 58.025 55.8666V54.6667H67.475L67.4667 55.8666ZM58.025 53.0333H67.4667L67.475 40.3167C67.475 40.1602 67.3481 40.0333 67.1917 40.0333H58.3083C58.1518 40.0333 58.025 40.1602 58.025 40.3167V53.0333Z" fill="#3D3D63"/>
<path d="M64.4167 41.15H61.0833C60.6231 41.15 60.25 41.5231 60.25 41.9834C60.25 42.4436 60.6231 42.8167 61.0833 42.8167H64.4167C64.8769 42.8167 65.25 42.4436 65.25 41.9834C65.25 41.5231 64.8769 41.15 64.4167 41.15Z" fill="#3D3D63"/>
<path d="M36.6417 27.25H34.4167C33.9564 27.25 33.5833 27.6231 33.5833 28.0833C33.5833 28.5436 33.9564 28.9167 34.4167 28.9167H36.6417C37.1019 28.9167 37.475 28.5436 37.475 28.0833C37.475 27.6231 37.1019 27.25 36.6417 27.25Z" fill="#3D3D63"/>
<circle cx="31.3583" cy="28.0833" r="0.833333" fill="#3D3D63"/>
<path d="M36.6417 31.6917H34.4167C33.9564 31.6917 33.5833 32.0647 33.5833 32.525C33.5833 32.9852 33.9564 33.3583 34.4167 33.3583H36.6417C37.1019 33.3583 37.475 32.9852 37.475 32.525C37.475 32.0647 37.1019 31.6917 36.6417 31.6917Z" fill="#3D3D63"/>
<path d="M36.6417 34.4667H34.4167C33.9564 34.4667 33.5833 34.8398 33.5833 35.3C33.5833 35.7602 33.9564 36.1333 34.4167 36.1333H36.6417C37.1019 36.1333 37.475 35.7602 37.475 35.3C37.475 34.8398 37.1019 34.4667 36.6417 34.4667Z" fill="#3D3D63"/>
<circle cx="31.3583" cy="32.525" r="0.833333" fill="#3D3D63"/>
<path fill-rule="evenodd" clip-rule="evenodd" d="M63.175 30.3C63.175 32.2974 61.5557 33.9167 59.5583 33.9167C57.5609 33.9167 55.9417 32.2974 55.9417 30.3C55.9417 28.3026 57.5609 26.6833 59.5583 26.6833C61.5557 26.6833 63.175 28.3026 63.175 30.3ZM61.3607 29.5641C61.0593 28.8344 60.3478 28.3584 59.5583 28.3583C58.4846 28.3583 57.6129 29.2263 57.6083 30.3C57.6049 31.0895 58.0779 31.8031 58.8063 32.1075C59.5347 32.412 60.3748 32.2472 60.9342 31.6902C61.4936 31.1331 61.662 30.2937 61.3607 29.5641Z" fill="#3D3D63"/>
<path d="M43.4417 31.75H48.4417C48.9019 31.75 49.275 31.3769 49.275 30.9166C49.275 30.4564 48.9019 30.0833 48.4417 30.0833H43.4417C42.9814 30.0833 42.6083 30.4564 42.6083 30.9166C42.6083 31.3769 42.9814 31.75 43.4417 31.75Z" fill="#3D3D63"/>
<path d="M50.85 32.8583H43.4417C42.9814 32.8583 42.6083 33.2314 42.6083 33.6917C42.6083 34.1519 42.9814 34.525 43.4417 34.525H50.85C51.3102 34.525 51.6833 34.1519 51.6833 33.6917C51.6833 33.2314 51.3102 32.8583 50.85 32.8583Z" fill="#3D3D63"/>
<path d="M53.35 27.25H43.4417C42.9814 27.25 42.6083 27.6231 42.6083 28.0833C42.6083 28.5436 42.9814 28.9167 43.4417 28.9167H53.35C53.8102 28.9167 54.1833 28.5436 54.1833 28.0833C54.1833 27.6231 53.8102 27.25 53.35 27.25Z" fill="#3D3D63"/>
<path d="M48.025 39.4667H43.4417C42.9814 39.4667 42.6083 39.8398 42.6083 40.3C42.6083 40.7602 42.9814 41.1333 43.4417 41.1333H48.025C48.4852 41.1333 48.8583 40.7602 48.8583 40.3C48.8583 39.8398 48.4852 39.4667 48.025 39.4667V39.4667Z" fill="#3D3D63"/>
<path d="M43.4417 38.3583H45.3917C45.8519 38.3583 46.225 37.9852 46.225 37.525C46.225 37.0647 45.8519 36.6917 45.3917 36.6917H43.4417C42.9814 36.6917 42.6083 37.0647 42.6083 37.525C42.6083 37.9852 42.9814 38.3583 43.4417 38.3583Z" fill="#3D3D63"/>
<path d="M8.092 83.004C9.56667 83.004 10.7847 83.494 11.746 84.474C12.7073 85.4353 13.188 86.644 13.188 88.1C13.188 89.5467 12.7073 90.7553 11.746 91.726C10.7847 92.706 9.56667 93.196 8.092 93.196C7.20533 93.196 6.38867 92.9907 5.642 92.58C4.89533 92.16 4.312 91.5953 3.892 90.886L5.558 89.92C5.79133 90.3493 6.132 90.69 6.58 90.942C7.03733 91.1847 7.54133 91.306 8.092 91.306C8.876 91.306 9.53867 91.1007 10.08 90.69C10.6307 90.27 10.99 89.7053 11.158 88.996H6.79V87.19H11.158C10.99 86.4807 10.6307 85.9207 10.08 85.51C9.53867 85.09 8.876 84.88 8.092 84.88C7.54133 84.88 7.042 85.006 6.594 85.258C6.146 85.5007 5.80067 85.8413 5.558 86.28L3.892 85.314C4.312 84.6047 4.89533 84.0447 5.642 83.634C6.398 83.214 7.21467 83.004 8.092 83.004ZM14.6454 86H20.1894V93H18.3834V87.736H16.4514V90.074C16.4514 92.23 15.4668 93.2053 13.4974 93V91.306C13.8708 91.3993 14.1554 91.334 14.3514 91.11C14.5474 90.886 14.6454 90.508 14.6454 89.976V86ZM28.63 90.242H23.352C23.5853 91.1193 24.2433 91.558 25.326 91.558C26.0167 91.558 26.5393 91.3247 26.894 90.858L28.35 91.698C27.6593 92.6967 26.642 93.196 25.298 93.196C24.1407 93.196 23.212 92.846 22.512 92.146C21.812 91.446 21.462 90.564 21.462 89.5C21.462 88.4547 21.8073 87.5773 22.498 86.868C23.1793 86.1587 24.066 85.804 25.158 85.804C26.194 85.804 27.0387 86.1587 27.692 86.868C28.364 87.5773 28.7 88.4547 28.7 89.5C28.7 89.696 28.6767 89.9433 28.63 90.242ZM23.324 88.842H26.894C26.7913 88.3847 26.5813 88.0347 26.264 87.792C25.956 87.5493 25.5873 87.428 25.158 87.428C24.6727 87.428 24.2713 87.554 23.954 87.806C23.6367 88.0487 23.4267 88.394 23.324 88.842ZM33.5168 89.458L36.4148 93H34.3148L31.7668 89.822V93H29.9608V86H31.7668V89.08L34.1748 86H36.3308L33.5168 89.458ZM36.6302 86H42.8322V87.736H40.6482V93H38.8422V87.736H36.6302V86ZM47.8707 85.804C48.8134 85.804 49.616 86.1633 50.2787 86.882C50.9507 87.6007 51.2867 88.4733 51.2867 89.5C51.2867 90.5453 50.9507 91.4227 50.2787 92.132C49.6254 92.8413 48.8227 93.196 47.8707 93.196C46.8907 93.196 46.1347 92.8553 45.6027 92.174V95.8H43.7967V86H45.6027V86.826C46.1347 86.1447 46.8907 85.804 47.8707 85.804ZM46.1487 90.928C46.5127 91.292 46.9747 91.474 47.5347 91.474C48.0947 91.474 48.5567 91.292 48.9207 90.928C49.294 90.5547 49.4807 90.0787 49.4807 89.5C49.4807 88.9213 49.294 88.45 48.9207 88.086C48.5567 87.7127 48.0947 87.526 47.5347 87.526C46.9747 87.526 46.5127 87.7127 46.1487 88.086C45.7847 88.45 45.6027 88.9213 45.6027 89.5C45.6027 90.0787 45.7847 90.5547 46.1487 90.928ZM58.5244 92.132C57.815 92.8413 56.9377 93.196 55.8924 93.196C54.847 93.196 53.9697 92.8413 53.2604 92.132C52.551 91.4227 52.1964 90.5453 52.1964 89.5C52.1964 88.464 52.551 87.5913 53.2604 86.882C53.979 86.1633 54.8564 85.804 55.8924 85.804C56.9284 85.804 57.8057 86.1633 58.5244 86.882C59.243 87.6007 59.6024 88.4733 59.6024 89.5C59.6024 90.536 59.243 91.4133 58.5244 92.132ZM54.5344 90.886C54.8984 91.25 55.351 91.432 55.8924 91.432C56.4337 91.432 56.8864 91.25 57.2504 90.886C57.6144 90.522 57.7964 90.06 57.7964 89.5C57.7964 88.94 57.6144 88.478 57.2504 88.114C56.8864 87.75 56.4337 87.568 55.8924 87.568C55.351 87.568 54.8984 87.75 54.5344 88.114C54.1797 88.4873 54.0024 88.9493 54.0024 89.5C54.0024 90.0507 54.1797 90.5127 54.5344 90.886ZM65.4649 88.646V86H67.2709V93H65.4649V90.34H62.6789V93H60.8729V86H62.6789V88.646H65.4649ZM70.6896 89.976L73.9796 86H75.3236V93H73.5596V89.024L70.2696 93H68.9256V86H70.6896V89.976ZM80.5343 89.458L83.4323 93H81.3323L78.7843 89.822V93H76.9783V86H78.7843V89.08L81.1923 86H83.3483L80.5343 89.458ZM89.148 86.826V86H90.954V93H89.148V92.174C88.6066 92.8553 87.846 93.196 86.866 93.196C85.9326 93.196 85.13 92.8413 84.458 92.132C83.7953 91.4133 83.464 90.536 83.464 89.5C83.464 88.4733 83.7953 87.6007 84.458 86.882C85.13 86.1633 85.9326 85.804 86.866 85.804C87.846 85.804 88.6066 86.1447 89.148 86.826ZM85.816 90.928C86.18 91.292 86.642 91.474 87.202 91.474C87.762 91.474 88.224 91.292 88.588 90.928C88.9613 90.5547 89.148 90.0787 89.148 89.5C89.148 88.9213 88.9613 88.45 88.588 88.086C88.224 87.7127 87.762 87.526 87.202 87.526C86.642 87.526 86.18 87.7127 85.816 88.086C85.452 88.45 85.27 88.9213 85.27 89.5C85.27 90.0787 85.452 90.5547 85.816 90.928Z" fill="#4A4A4A"/>
</svg>
