<svg width="81" height="98" viewBox="0 0 81 98" fill="none" xmlns="http://www.w3.org/2000/svg">
<rect x="3" width="75" height="75" rx="20" fill="#B6CAFB"/>
<path fill-rule="evenodd" clip-rule="evenodd" d="M63.0427 33.3253H52.348C51.4221 29.8764 48.7261 27.1837 45.276 26.262L45.0593 24.5287L47.8067 24C48.5176 23.8695 49.1268 23.4142 49.4533 22.7693C49.7648 22.1416 49.7301 21.3975 49.3615 20.8014C48.993 20.2054 48.3428 19.8419 47.642 19.84H44.4873V19.7273C44.3388 18.4758 43.2777 17.5331 42.0173 17.5331C40.757 17.5331 39.6959 18.4758 39.5473 19.7273V19.8487H36.358C35.6572 19.8505 35.007 20.2141 34.6385 20.8101C34.2699 21.4061 34.2352 22.1502 34.5467 22.778C34.8753 23.4196 35.4841 23.8714 36.1933 24L38.9407 24.5027L38.724 26.236C35.2739 27.1577 32.5779 29.8504 31.652 33.2993H20.9487C19.8552 33.3268 18.9733 34.203 18.9387 35.2963C18.9042 36.3895 19.7291 37.3197 20.8187 37.416L22.6733 37.5287C22.4544 37.9366 22.3383 38.3917 22.3353 38.8547C22.3353 40.4534 23.6313 41.7493 25.23 41.7493C26.8287 41.7493 28.1247 40.4534 28.1247 38.8547C28.1172 38.5161 28.0497 38.1816 27.9253 37.8667L31.522 38.0833C32.4667 43.1967 36.904 47.192 42 47.192C47.096 47.192 51.5333 43.2053 52.478 38.0833L56.066 37.8667C55.9424 38.1909 55.875 38.5338 55.8667 38.8807C55.8667 40.4794 57.1627 41.7753 58.7613 41.7753C60.36 41.7753 61.656 40.4794 61.656 38.8807C61.653 38.4177 61.537 37.9626 61.318 37.5547L63.1727 37.442C64.2622 37.3457 65.0871 36.4155 65.0526 35.3223C65.0181 34.229 64.1361 33.3528 63.0427 33.3253ZM25.23 40.042C24.5898 40.0372 24.0742 39.5152 24.0773 38.8749C24.0805 38.2347 24.6013 37.7178 25.2415 37.7194C25.8818 37.721 26.4 38.2404 26.4 38.8807C26.4 39.1902 26.2765 39.4869 26.0568 39.7049C25.8371 39.923 25.5395 40.0443 25.23 40.042ZM57.6087 38.8807C57.6087 39.5221 58.1286 40.042 58.77 40.042C59.4114 40.042 59.9313 39.5221 59.9313 38.8807C59.9313 38.2393 59.4114 37.7193 58.77 37.7193C58.1286 37.7193 57.6087 38.2393 57.6087 38.8807ZM47.642 21.608C47.7425 21.6052 47.8361 21.6587 47.8847 21.7467C47.9358 21.8352 47.9358 21.9442 47.8847 22.0327C47.8038 22.1903 47.6524 22.2998 47.4773 22.3273L44.834 22.8127L44.6867 21.608H47.642ZM36.098 22.0327C36.1789 22.1903 36.3303 22.2998 36.5053 22.3273L39.1313 22.8127L39.2787 21.608H36.3407C36.2402 21.6052 36.1466 21.6587 36.098 21.7467C36.0469 21.8352 36.0469 21.9442 36.098 22.0327ZM41.246 19.9613C41.3027 19.5887 41.6231 19.3133 42 19.3133C42.3769 19.3133 42.6973 19.5887 42.754 19.9613L43.4907 25.9067C42.501 25.7795 41.499 25.7795 40.5093 25.9067L41.246 19.9613ZM20.6193 35.388C20.6191 35.5586 20.7524 35.6995 20.9227 35.7087L31.3487 36.324V35.9253V35.0587H20.9487C20.7668 35.0587 20.6193 35.2061 20.6193 35.388ZM42 45.4587C37.2333 45.4587 33.0473 41.004 33.0473 35.9253C33.0473 31.15 36.8953 27.5533 42 27.5533C47.1047 27.5533 50.9527 31.15 50.9527 35.9253C50.9527 41.004 46.7667 45.4587 42 45.4587ZM52.6773 36.3327L63.0773 35.7087C63.1639 35.711 63.2477 35.6783 63.3097 35.6179C63.3717 35.5575 63.4067 35.4746 63.4067 35.388C63.4067 35.3007 63.372 35.2169 63.3102 35.1551C63.2484 35.0934 63.1647 35.0587 63.0773 35.0587H52.6773V35.9253V36.3327Z" fill="#3D3D63"/>
<path fill-rule="evenodd" clip-rule="evenodd" d="M38.1953 31.3147H45.8047C46.4549 31.3016 47.0737 31.5934 47.4773 32.1034C48.1008 32.8661 48.5557 33.7522 48.812 34.7034C48.9824 35.3431 48.8446 36.0258 48.4393 36.5494C48.0465 37.0663 47.4332 37.3681 46.784 37.364H37.2507C36.6014 37.3681 35.9881 37.0663 35.5953 36.5494C35.1901 36.0258 35.0523 35.3431 35.2227 34.7034C35.479 33.7522 35.9339 32.8661 36.5573 32.1034C36.9535 31.6031 37.5573 31.3124 38.1953 31.3147ZM43.2047 35.648V33.048H40.8213V35.648H43.2047ZM36.9907 35.5007C36.9137 35.4026 36.8909 35.2725 36.93 35.154C37.1221 34.4362 37.4616 33.7662 37.9267 33.1867C38.0007 33.1006 38.1078 33.0502 38.2213 33.048H39.088V35.648H37.2507C37.1376 35.646 37.0319 35.5916 36.9647 35.5007H36.9907ZM46.7753 35.6394C46.8869 35.6394 46.9923 35.5883 47.0613 35.5007H47.0353C47.105 35.3985 47.1181 35.268 47.07 35.154C46.8799 34.4328 46.5404 33.7596 46.0733 33.178C45.9993 33.092 45.8921 33.0415 45.7787 33.0394H44.912V35.6394H46.7753Z" fill="#3D3D63"/>
<path d="M60.486 46.0393C57.1833 46.04 54.1193 47.7608 52.4 50.5806C51.6854 50.2516 50.9074 50.083 50.1207 50.0866C47.4269 50.0905 45.1331 52.0466 44.704 54.706H44.444C43.9654 54.706 43.5773 55.094 43.5773 55.5726C43.5773 56.0513 43.9654 56.4393 44.444 56.4393H45.4667C45.9453 56.4393 46.3333 56.0513 46.3333 55.5726C46.3373 54.1794 47.1111 52.9025 48.3442 52.2541C49.5774 51.6057 51.068 51.6921 52.218 52.4786C52.6792 52.7977 53.064 53.2151 53.3447 53.7006C53.5001 53.9699 53.7878 54.1352 54.0987 54.134C54.2513 54.1324 54.4008 54.0905 54.532 54.0126C54.9415 53.7717 55.0807 53.246 54.844 52.834C54.5678 52.3612 54.2231 51.9319 53.8213 51.56C55.219 49.21 57.7518 47.7707 60.486 47.7726C60.9646 47.7726 61.3527 47.3846 61.3527 46.906C61.3527 46.4273 60.9646 46.0393 60.486 46.0393V46.0393Z" fill="#3D3D63"/>
<path d="M40.8473 54.706H39.322C38.8968 52.048 36.6058 50.0912 33.914 50.0867C33.1273 50.0831 32.3493 50.2517 31.6347 50.5807C29.9089 47.7502 26.8291 46.0279 23.514 46.0394C23.0354 46.0394 22.6473 46.4274 22.6473 46.906C22.6473 47.3847 23.0354 47.7727 23.514 47.7727C26.2482 47.7708 28.781 49.2101 30.1787 51.56C29.7769 51.932 29.4322 52.3613 29.156 52.834C28.9193 53.246 29.0585 53.7718 29.468 54.0127C29.5992 54.0906 29.7487 54.1324 29.9013 54.134C30.2122 54.1353 30.4999 53.9699 30.6553 53.7007C30.936 53.2151 31.3208 52.7978 31.782 52.4787C32.8019 51.7798 34.1007 51.6282 35.2542 52.0733C36.4077 52.5184 37.2679 53.5032 37.554 54.706H37.3807C36.902 54.706 36.514 55.094 36.514 55.5727C36.514 56.0513 36.902 56.4394 37.3807 56.4394H40.8473C41.326 56.4394 41.714 56.0513 41.714 55.5727C41.714 55.094 41.326 54.706 40.8473 54.706Z" fill="#3D3D63"/>
<path d="M9.31 93H7.21L6.622 91.236H2.716L2.128 93H0.042L3.472 83.2H5.866L9.31 93ZM4.676 85.426L3.332 89.43H6.02L4.676 85.426ZM15.2176 89.416C15.8709 89.7333 16.1976 90.2653 16.1976 91.012C16.1976 91.6093 15.9922 92.09 15.5816 92.454C15.1709 92.818 14.5969 93 13.8596 93H10.1776V86H13.5796C14.3076 86 14.8769 86.182 15.2876 86.546C15.6982 86.9007 15.9036 87.3767 15.9036 87.974C15.9036 88.59 15.6749 89.0707 15.2176 89.416ZM13.4116 87.484H11.8716V88.744H13.4116C13.9249 88.744 14.1816 88.534 14.1816 88.114C14.1816 87.694 13.9249 87.484 13.4116 87.484ZM11.8716 91.474H13.6496C14.1722 91.474 14.4336 91.25 14.4336 90.802C14.4336 90.606 14.3636 90.452 14.2236 90.34C14.0836 90.228 13.8922 90.172 13.6496 90.172H11.8716V91.474ZM16.4642 86H22.6662V87.736H20.4822V93H18.6762V87.736H16.4642V86ZM29.3213 92.132C28.6119 92.8413 27.7346 93.196 26.6893 93.196C25.6439 93.196 24.7666 92.8413 24.0573 92.132C23.3479 91.4227 22.9932 90.5453 22.9932 89.5C22.9932 88.464 23.3479 87.5913 24.0573 86.882C24.7759 86.1633 25.6533 85.804 26.6893 85.804C27.7253 85.804 28.6026 86.1633 29.3213 86.882C30.0399 87.6007 30.3993 88.4733 30.3993 89.5C30.3993 90.536 30.0399 91.4133 29.3213 92.132ZM25.3313 90.886C25.6953 91.25 26.1479 91.432 26.6893 91.432C27.2306 91.432 27.6833 91.25 28.0473 90.886C28.4113 90.522 28.5933 90.06 28.5933 89.5C28.5933 88.94 28.4113 88.478 28.0473 88.114C27.6833 87.75 27.2306 87.568 26.6893 87.568C26.1479 87.568 25.6953 87.75 25.3313 88.114C24.9766 88.4873 24.7993 88.9493 24.7993 89.5C24.7993 90.0507 24.9766 90.5127 25.3313 90.886ZM37.1718 86H38.9498V93H37.1998V88.912L35.4218 91.712H35.1978L33.4058 88.884V93H31.6698V86H33.4478L35.3098 88.94L37.1718 86ZM46.5615 92.132C45.8522 92.8413 44.9748 93.196 43.9295 93.196C42.8842 93.196 42.0068 92.8413 41.2975 92.132C40.5882 91.4227 40.2335 90.5453 40.2335 89.5C40.2335 88.464 40.5882 87.5913 41.2975 86.882C42.0162 86.1633 42.8935 85.804 43.9295 85.804C44.9655 85.804 45.8428 86.1633 46.5615 86.882C47.2802 87.6007 47.6395 88.4733 47.6395 89.5C47.6395 90.536 47.2802 91.4133 46.5615 92.132ZM42.5715 90.886C42.9355 91.25 43.3882 91.432 43.9295 91.432C44.4708 91.432 44.9235 91.25 45.2875 90.886C45.6515 90.522 45.8335 90.06 45.8335 89.5C45.8335 88.94 45.6515 88.478 45.2875 88.114C44.9235 87.75 44.4708 87.568 43.9295 87.568C43.3882 87.568 42.9355 87.75 42.5715 88.114C42.2168 88.4873 42.0395 88.9493 42.0395 89.5C42.0395 90.0507 42.2168 90.5127 42.5715 90.886ZM52.228 93.196C51.1267 93.196 50.2353 92.8413 49.554 92.132C48.882 91.4227 48.546 90.522 48.546 89.43C48.546 88.2447 48.7233 87.3253 49.078 86.672C49.4233 86.0187 50.1373 85.426 51.22 84.894C51.248 84.8753 51.2993 84.8473 51.374 84.81C51.458 84.7727 51.542 84.7353 51.626 84.698C51.7193 84.6607 51.808 84.6233 51.892 84.586L52.48 84.292C52.62 84.2267 52.7693 84.1427 52.928 84.04C53.1613 83.9 53.334 83.7553 53.446 83.606C53.558 83.4567 53.6793 83.2327 53.81 82.934L55.294 83.788C55.1727 84.3573 54.8973 84.8007 54.468 85.118C54.0293 85.4353 53.3947 85.7527 52.564 86.07C51.9853 86.294 51.556 86.5227 51.276 86.756C50.996 86.9893 50.7953 87.274 50.674 87.61C51.1873 87.078 51.8873 86.812 52.774 86.812C53.558 86.812 54.2487 87.0967 54.846 87.666C55.4527 88.226 55.756 88.9727 55.756 89.906C55.756 90.8673 55.4293 91.656 54.776 92.272C54.132 92.888 53.2827 93.196 52.228 93.196ZM52.2 88.254C51.7333 88.254 51.3227 88.3987 50.968 88.688C50.6133 88.9867 50.436 89.374 50.436 89.85C50.436 90.3447 50.604 90.7507 50.94 91.068C51.2853 91.3853 51.71 91.544 52.214 91.544C52.7273 91.544 53.1427 91.39 53.46 91.082C53.7867 90.774 53.95 90.382 53.95 89.906C53.95 89.43 53.7867 89.038 53.46 88.73C53.1333 88.4127 52.7133 88.254 52.2 88.254ZM58.6173 89.976L61.9073 86H63.2513V93H61.4873V89.024L58.1973 93H56.8533V86H58.6173V89.976ZM65.3681 86H70.9121V93H69.1061V87.736H67.1741V90.074C67.1741 92.23 66.1894 93.2053 64.2201 93V91.306C64.5934 91.3993 64.8781 91.334 65.0741 91.11C65.2701 90.886 65.3681 90.508 65.3681 89.976V86ZM74.3127 89.976L77.6027 86H78.9467V93H77.1827V89.024L73.8927 93H72.5487V86H74.3127V89.976Z" fill="#4A4A4A"/>
</svg>
